<?xml version="1.0" encoding="UTF-8" standalone="no"?>
<!-- Created with Inkscape (http://www.inkscape.org/) -->

<svg
   xmlns:dc="http://purl.org/dc/elements/1.1/"
   xmlns:cc="http://creativecommons.org/ns#"
   xmlns:rdf="http://www.w3.org/1999/02/22-rdf-syntax-ns#"
   xmlns:svg="http://www.w3.org/2000/svg"
   xmlns="http://www.w3.org/2000/svg"
   xmlns:sodipodi="http://sodipodi.sourceforge.net/DTD/sodipodi-0.dtd"
   xmlns:inkscape="http://www.inkscape.org/namespaces/inkscape"
   width="279.05844"
   height="369.11386"
   id="svg2"
   version="1.1"
   inkscape:version="0.48.2 r9819"
   sodipodi:docname="avatar2.svg"
   inkscape:export-filename="/home/david/projects/avatar/avatar-128.png"
   inkscape:export-xdpi="31.244732"
   inkscape:export-ydpi="31.244732">
  <defs
     id="defs4" />
  <sodipodi:namedview
     id="base"
     pagecolor="#ffffff"
     bordercolor="#666666"
     borderopacity="1.0"
     inkscape:pageopacity="0.0"
     inkscape:pageshadow="2"
     inkscape:zoom="2"
     inkscape:cx="148.89475"
     inkscape:cy="205.66577"
     inkscape:document-units="px"
     inkscape:current-layer="layer1"
     showgrid="false"
     inkscape:window-width="1362"
     inkscape:window-height="729"
     inkscape:window-x="0"
     inkscape:window-y="18"
     inkscape:window-maximized="0"
     fit-margin-top="0"
     fit-margin-left="0"
     fit-margin-right="0"
     fit-margin-bottom="0" />
  <metadata
     id="metadata7">
    <rdf:RDF>
      <cc:Work
         rdf:about="">
        <dc:format>image/svg+xml</dc:format>
        <dc:type
           rdf:resource="http://purl.org/dc/dcmitype/StillImage" />
        <dc:title></dc:title>
      </cc:Work>
    </rdf:RDF>
  </metadata>
  <g
     inkscape:label="Layer 1"
     inkscape:groupmode="layer"
     id="layer1"
     transform="translate(-203.14675,-314.42284)">
    <path
       style="fill:#000000;fill-opacity:1;stroke:none"
       d="m 390.5901,366.74086 c 18.06371,27.43503 28.10965,72.33095 29.85965,80.83095 12.25,-13.75 6.84745,-16.61091 6.84745,-16.61091 -17.24275,-58.56883 -15.96936,-33.42164 -27.13603,-75.58831 z"
       id="path3986"
       inkscape:connector-curvature="0"
       sodipodi:nodetypes="ccccc" />
    <path
       transform="matrix(0.80294337,0,0,0.80774486,179.70663,84.190433)"
       d="m 334.125,441.73718 c 0,10.01016 -9.23413,18.125 -20.625,18.125 -11.39087,0 -20.625,-8.11484 -20.625,-18.125 0,-10.01016 9.23413,-18.125 20.625,-18.125 11.39087,0 20.625,8.11484 20.625,18.125 z"
       sodipodi:ry="18.125"
       sodipodi:rx="20.625"
       sodipodi:cy="441.73718"
       sodipodi:cx="313.5"
       id="path4045"
       style="fill:#fff5c9;fill-opacity:1;stroke:#0a0000;stroke-opacity:1"
       sodipodi:type="arc" />
    <path
       style="fill:#000000;fill-opacity:1;stroke:#000000;stroke-width:1px;stroke-linecap:butt;stroke-linejoin:miter;stroke-opacity:1"
       d="m 263.75083,383.9695 c -6.59966,53.73798 -9.48702,44.01739 -10.42982,56.03822 0,0 -1.23745,-5.30331 10.96014,10.42982 -3.18198,-35.17857 -2.47487,-59.04342 4.77298,-61.69507 l 12.37437,-10.25305 -13.78858,-7.42462 -13.08148,13.43503 z"
       id="path3971"
       inkscape:connector-curvature="0"
       sodipodi:nodetypes="cccccccc" />
    <path
       sodipodi:type="arc"
       style="fill:#fff5c9;fill-opacity:1;stroke:#0a0000;stroke-opacity:1"
       id="path3963-3"
       sodipodi:cx="313.5"
       sodipodi:cy="441.73718"
       sodipodi:rx="20.625"
       sodipodi:ry="18.125"
       d="m 334.125,441.73718 c 0,10.01016 -9.23413,18.125 -20.625,18.125 -11.39087,0 -20.625,-8.11484 -20.625,-18.125 0,-10.01016 9.23413,-18.125 20.625,-18.125 11.39087,0 20.625,8.11484 20.625,18.125 z"
       transform="matrix(0.85671154,0,0,0.91525702,-20.829068,40.305772)" />
    <path
       style="fill:#fff5c9;fill-opacity:1;stroke:#000000;stroke-width:0.87356061px;stroke-linecap:butt;stroke-linejoin:miter;stroke-opacity:1"
       d="m 260.97128,433.04616 c 0,0 -16.86061,99.16983 35.85503,130.09369 52.71563,30.92384 69.42568,5.82144 69.42568,5.82144 0,0 57.53718,-25.05607 54.86804,-123.66228 -0.8562,-31.63078 -12.71205,-66.84605 -29.05706,-79.5628 -34.60914,-26.92659 -87.71806,-5.62365 -87.71806,-5.62365 l -37.36805,7.58509 z"
       id="path3147"
       inkscape:connector-curvature="0"
       sodipodi:nodetypes="cscssccc" />
    <path
       style="fill:#ffffff;fill-opacity:1;stroke:#000000;stroke-width:1px;stroke-linecap:butt;stroke-linejoin:miter;stroke-opacity:1"
       d="m 203.64675,683.03671 c 0,0 12.38481,-70.93162 133.97161,-70.77134 129.85801,0.17118 144.08683,67.5287 144.08683,67.5287"
       id="path4080"
       inkscape:connector-curvature="0"
       sodipodi:nodetypes="csc" />
    <path
       style="fill:#fff5c9;fill-opacity:1;stroke:#000000;stroke-width:1px;stroke-linecap:butt;stroke-linejoin:miter;stroke-opacity:1"
       d="m 321.75,574.86218 c 0,0 -4.96447,29.50736 -9.91421,39.76041 0,0 27.33705,5.44974 54.56066,0.14644 C 360.73959,602.39467 355,574.86218 355,574.86218 z"
       id="path4068"
       inkscape:connector-curvature="0"
       sodipodi:nodetypes="ccccc" />
    <path
       style="fill:#000000;fill-opacity:1;stroke:none"
       d="m 338.57143,492.21932 c 39.28571,1.19989 52.63545,37.09566 52.91457,42.23158 1.08112,19.8933 0.85955,35.67274 -16.60163,44.30252 -16.65552,8.2316 -48.55398,11.02917 -64.78285,4.54299 -7.16434,-2.86336 -29.39925,-8.37545 -28.38401,-41.59538 2.82714,-39.7943 38.07494,-49.74703 56.85392,-49.48171 z"
       id="path3168"
       inkscape:connector-curvature="0"
       sodipodi:nodetypes="cssscc" />
    <path
       style="fill:#fff5c9;fill-opacity:1;stroke:none"
       d="m 294.33319,541.99641 c 0,-2.20409 -6.43971,-30.05578 48.6136,-26.44909 55.05331,3.6067 34.82037,33.84206 33.0825,36.66805 -1.43213,2.32881 -24.62234,18.38865 -31.94607,-9.01674 -6.10721,2.25148 -12.87945,0.20037 -12.87945,0.20037 0,0 -1.95718,7.51395 -7.16578,11.39616 -5.2086,3.8822 -29.07345,9.64289 -29.7048,-12.79875 z"
       id="path3938"
       inkscape:connector-curvature="0"
       sodipodi:nodetypes="cssccsc" />
    <path
       style="fill:none;stroke:#000000;stroke-width:1.39980853px;stroke-linecap:butt;stroke-linejoin:miter;stroke-opacity:1"
       d="m 304.75,528.78632 c 8.76928,12.77504 47.4003,17.45394 62,-0.42414"
       id="path3955"
       inkscape:connector-curvature="0"
       sodipodi:nodetypes="cc" />
    <path
       sodipodi:nodetypes="cc"
       inkscape:connector-curvature="0"
       id="path3957"
       d="m 300.70328,533.155 c 0,0 5,-2.875 5.625,-10.25"
       style="fill:none;stroke:#000000;stroke-width:1px;stroke-linecap:butt;stroke-linejoin:miter;stroke-opacity:1" />
    <path
       style="fill:none;stroke:#000000;stroke-width:1px;stroke-linecap:butt;stroke-linejoin:miter;stroke-opacity:1"
       d="m 372.375,532.48718 c 0,0 -6.125,-1.625 -6.75,-9"
       id="path3959"
       inkscape:connector-curvature="0"
       sodipodi:nodetypes="cc" />
    <path
       style="fill:none;stroke:#000000;stroke-width:2.01066804;stroke-linecap:butt;stroke-linejoin:miter;stroke-miterlimit:4;stroke-opacity:1;stroke-dasharray:none"
       d="m 259.15912,444.36218 161.30055,0.125"
       id="path3969"
       inkscape:connector-curvature="0"
       sodipodi:nodetypes="cc" />
    <path
       sodipodi:type="arc"
       style="fill:#ffffff;fill-opacity:1;stroke:#0a0000;stroke-opacity:1"
       id="path3963"
       sodipodi:cx="313.5"
       sodipodi:cy="441.73718"
       sodipodi:rx="20.625"
       sodipodi:ry="18.125"
       d="m 334.125,441.73718 c 0,10.01016 -9.23413,18.125 -20.625,18.125 -11.39087,0 -20.625,-8.11484 -20.625,-18.125 0,-10.01016 9.23413,-18.125 20.625,-18.125 11.39087,0 20.625,8.11484 20.625,18.125 z"
       transform="translate(-5,2.5625)" />
    <path
       style="fill:#fff5c9;fill-opacity:1;stroke:#0a0000;stroke-width:1px;stroke-linecap:butt;stroke-linejoin:miter;stroke-opacity:1"
       d="m 341.125,455.23718 c 0,0 -13.9403,-5.76355 -31.08232,8.19842 -7.00275,5.70366 -12.47768,18.03061 -6.29268,28.92658 19.02364,33.5135 61,-8.375 61,-8.375"
       id="path3942"
       inkscape:connector-curvature="0"
       sodipodi:nodetypes="cssc" />
    <path
       transform="translate(52.5,2.5625)"
       d="m 334.125,441.73718 c 0,10.01016 -9.23413,18.125 -20.625,18.125 -11.39087,0 -20.625,-8.11484 -20.625,-18.125 0,-10.01016 9.23413,-18.125 20.625,-18.125 11.39087,0 20.625,8.11484 20.625,18.125 z"
       sodipodi:ry="18.125"
       sodipodi:rx="20.625"
       sodipodi:cy="441.73718"
       sodipodi:cx="313.5"
       id="path3967"
       style="fill:#ffffff;fill-opacity:1;stroke:#0a0000;stroke-opacity:1"
       sodipodi:type="arc" />
    <path
       style="fill:#000000;fill-opacity:1;stroke:none"
       d="m 255.5,375.11218 c -24.21841,4.15425 -37.5,16 -37.5,16 0,0 7.44016,-31.53509 42,-36.75 l -21.5,-1.75 c 0,0 23.45532,-19.55546 57.75,-21.5 -3.18198,-3.35876 -24.75,-3.75 -24.75,-3.75 0,0 45.40507,-22.78643 74.75,-1.75 2.12132,-5.83363 -5.61612,-11.18934 -5.61612,-11.18934 0,0 38.74175,0.36002 51.11612,20.68934 0,0 29.54416,-21.63262 55,4 0,0 -25.80025,-2.64429 -30.75,4.25 0,0 16.73744,9.8821 15.5,44 0,0 -8.58534,-12.17633 -18.75,-20.75 9.54594,19.7106 1.25,37.75 1.25,37.75 -7.51301,-30.14043 -37.5,-40 -37.5,-40 0,17.94283 -10.75,33.25 -10.75,33.25 -8.3085,-13.61181 -21.75,-23.25 -21.75,-23.25 0,26.42812 -26.5,32.25 -26.5,32.25 1.94454,-18.47316 -6.875,-24.8125 -6.875,-24.8125 -28.10749,11.84404 -41.625,27.6875 -41.625,27.6875 0,0 -4.23116,-7.02132 -2.375,-22.3125 -12.99309,2.03293 -25.625,15.6875 -25.625,15.6875 0,0 0.53464,-16.78984 14.5,-27.75 z"
       id="path3999"
       inkscape:connector-curvature="0"
       sodipodi:nodetypes="ccccccccccccccccccccccc" />
    <path
       style="fill:#ffffff;fill-opacity:1;stroke:#000000;stroke-width:1px;stroke-linecap:butt;stroke-linejoin:miter;stroke-opacity:1"
       d="m 308.2656,611.94215 18.208,-2.12132 11.31371,70.18035"
       id="path4092"
       inkscape:connector-curvature="0" />
    <path
       style="fill:#ffffff;fill-opacity:1;stroke:#000000;stroke-width:1px;stroke-linecap:butt;stroke-linejoin:miter;stroke-opacity:1"
       d="m 317.25,597.54968 c 0,0 -8.75,-0.1875 -16.5,3.3125 -7.75,3.5 25.57322,8.84099 25.57322,8.84099 l -6.27081,18.64124 c 0,0 -29.15901,-7.97487 -29.65901,-11.47487 -0.5,-3.5 9.22402,-15.13994 9.22402,-15.13994"
       id="path4082"
       inkscape:connector-curvature="0"
       sodipodi:nodetypes="csccsc" />
    <path
       inkscape:connector-curvature="0"
       id="path4106"
       d="m 369.89647,611.94215 -18.208,-2.12132 -11.31371,70.18035"
       style="fill:#ffffff;fill-opacity:1;stroke:#000000;stroke-width:1px;stroke-linecap:butt;stroke-linejoin:miter;stroke-opacity:1" />
    <path
       sodipodi:nodetypes="csccsc"
       inkscape:connector-curvature="0"
       id="path4108"
       d="m 360.91207,597.54968 c 0,0 8.75,-0.1875 16.5,3.3125 7.75,3.5 -25.57322,8.84099 -25.57322,8.84099 l 6.27081,18.64124 c 0,0 29.15901,-7.97487 29.65901,-11.47487 0.5,-3.5 -9.22402,-15.13994 -9.22402,-15.13994"
       style="fill:#ffffff;fill-opacity:1;stroke:#000000;stroke-width:1px;stroke-linecap:butt;stroke-linejoin:miter;stroke-opacity:1" />
    <path
       style="fill:#000000;fill-opacity:1;stroke:#000000;stroke-width:1px;stroke-linecap:butt;stroke-linejoin:miter;stroke-opacity:1"
       d="m 284.30869,436.25887 c -4.92707,-1.51212 -8.31531,-11.95222 -8.31531,-11.95222 8.60507,-1.87494 39.4757,-21.95895 39.4757,-21.95895 0,0 11.33424,2.47186 12.36241,10.15742 -24.37308,4.97651 -43.5228,23.75375 -43.5228,23.75375 z"
       id="path4131"
       inkscape:connector-curvature="0"
       sodipodi:nodetypes="ccccc" />
    <path
       sodipodi:nodetypes="ccccc"
       inkscape:connector-curvature="0"
       id="path4172"
       d="m 395.52139,426.97452 c 3.81437,-3.46599 2.4352,-14.35514 2.4352,-14.35514 -8.58445,1.96719 -45.06829,-3.06204 -45.06829,-3.06204 0,0 -9.20321,7.0623 -6.86132,14.45422 24.17243,-5.87418 49.49441,2.96296 49.49441,2.96296 z"
       style="fill:#000000;fill-opacity:1;stroke:#000000;stroke-width:1px;stroke-linecap:butt;stroke-linejoin:miter;stroke-opacity:1" />
    <path
       sodipodi:type="arc"
       style="opacity:0.98999999;fill:#000000;fill-opacity:1;stroke:#000000;stroke-width:2;stroke-miterlimit:4;stroke-opacity:1;stroke-dasharray:none"
       id="path4174"
       sodipodi:cx="371.93817"
       sodipodi:cy="448.93494"
       sodipodi:rx="9.280777"
       sodipodi:ry="9.280777"
       d="m 381.21895,448.93494 c 0,5.12563 -4.15515,9.28077 -9.28078,9.28077 -5.12563,0 -9.28078,-4.15514 -9.28078,-9.28077 0,-5.12564 4.15515,-9.28078 9.28078,-9.28078 5.12563,0 9.28078,4.15514 9.28078,9.28078 z"
       transform="matrix(0.55013128,0,0,0.55013128,161.47868,197.57162)" />
    <path
       transform="matrix(0.55013128,0,0,0.55013128,104.22868,197.57162)"
       d="m 381.21895,448.93494 c 0,5.12563 -4.15515,9.28077 -9.28078,9.28077 -5.12563,0 -9.28078,-4.15514 -9.28078,-9.28077 0,-5.12564 4.15515,-9.28078 9.28078,-9.28078 5.12563,0 9.28078,4.15514 9.28078,9.28078 z"
       sodipodi:ry="9.280777"
       sodipodi:rx="9.280777"
       sodipodi:cy="448.93494"
       sodipodi:cx="371.93817"
       id="path4189"
       style="opacity:0.98999999;fill:#000000;fill-opacity:1;stroke:#000000;stroke-width:2;stroke-miterlimit:4;stroke-opacity:1;stroke-dasharray:none"
       sodipodi:type="arc" />
  </g>
</svg>
